<svg xmlns="http://www.w3.org/2000/svg" viewBox="0 0 255 162"><defs/><defs><linearGradient id="a" x1="50%" x2="50%" y1="122.5%" y2="31.1%"><stop offset="0%" stop-color="#FFF100"/><stop offset="100%" stop-color="#F05A28"/></linearGradient></defs><g fill="none" fill-rule="nonzero"><path fill="#F57C00" d="M185 117c-5 0-9 1-13 3l14 26-21-21-79 24 72-29-40-15 47 11h2v-4c0-29-22-52-50-52-23 0-42 16-48 38-4-4-9-6-15-6-12 0-22 10-22 23l1 7h-3c-17 0-30 14-30 31l1 9h211c2-4 3-9 3-14 0-17-13-31-30-31z"/><path fill="#FFB74D" d="M119 91c15 0 29 5 40 14-2-19-19-33-40-33-20 0-38 14-40 33 11-9 25-14 40-14zm-57 15c-2-3-5-5-9-5-6 0-11 4-11 10l2 6c4-6 10-11 18-11zm-41 48c1-13 13-24 28-24-4-3-9-5-15-5-13 0-24 10-24 22l1 7h10z"/><path fill="url(#a)" d="M255 47a39 39 0 00-4-13 41 41 0 00-8-11c1-6-2-11-2-11-6-1-10 1-11 2h-1a43 43 0 00-10-3h-1c-2-8-10-11-10-11-8 5-10 12-10 12v1h-1l-2 1a50 50 0 00-9 4c-12-4-22 1-22 1-1 12 5 19 6 21l-1 2-2 8v1c-11 6-14 16-14 16 9 10 19 10 19 10a45 45 0 007 9c-3 9 1 17 1 17 9 0 16-5 17-6l3 1 10 2h4c4 6 12 7 12 7 6-6 7-12 7-13v-1a34 34 0 0010-10c6 0 11-4 11-4-1-6-5-10-6-10v-1-1-4-2a27 27 0 00-29-24h-1-1a21 21 0 00-9 3 22 22 0 00-9 11l-1 6v3a16 16 0 007 12 17 17 0 009 2h4l2-1 1-1 1-2h-2a10 10 0 01-3 1h-2-1a12 12 0 01-9-6 11 11 0 01-1-5v-1-1a14 14 0 0110-11l3-1h5l5 2a18 18 0 019 13v4a23 23 0 01-5 12 23 23 0 01-17 9h-4a33 33 0 01-12-4 31 31 0 01-15-18l-1-6v-2-1a34 34 0 011-9l2-6a32 32 0 0111-13 24 24 0 015-2l3-1h1l2-1h5v-1h3a41 41 0 018 1 38 38 0 0117 8h1l1 1 1 1v1a39 39 0 017 8v1l1 1v1l1 3 1 3 1 1 1-1v-4z"/></g></svg>